# xmcd
#
# Track frame offsets: 
#        150
#        27227
#        52907
#        70382
#        92263
#        110600
#        139829
#        163454
#        183150
#        207300
#        232740
#        258540
#        274972
#        292207
#        318402
#
# Disc length: 4668 seconds
#
# Revision: 0
# Processed by: cddbd v1.5.2PL0 Copyright (c) Steve Scherf et al.
# Submitted via: ExactAudioCopy v0.95b3
#
DISCID=e0123a0f
DTITLE=Saga  - The Definitive Collection [CD1]
DYEAR=1900
DGENRE=
TTITLE0=Don't Be Late (Chapter 2)
TTITLE1=Trust
TTITLE2=Take A Chance
TTITLE3=Odd Man Out
TTITLE4=I Walk With You
TTITLE5=Images (Chapter 1)
TTITLE6=Scratching The Surface
TTITLE7=Only Time Will Tell
TTITLE8=Uncle Albert's Eyes (Chapter 13)
TTITLE9=The Runaway
TTITLE10=Book Of Lies
TTITLE11=If I Were You
TTITLE12=What Do I Know ?
TTITLE13=Wind Him Up
TTITLE14=Tired World (Chapter 6)
EXTD=
EXTT0=
EXTT1=
EXTT2=
EXTT3=
EXTT4=
EXTT5=
EXTT6=
EXTT7=
EXTT8=
EXTT9=
EXTT10=
EXTT11=
EXTT12=
EXTT13=
EXTT14=
PLAYORDER=
